<svg xmlns="http://www.w3.org/2000/svg" width="1200" height="840" viewBox="0 0 1200 840">
<defs>
  <marker id="arrow" markerWidth="10" markerHeight="10" refX="9" refY="3" orient="auto" markerUnits="strokeWidth"><path d="M0,0 L0,6 L9,3 z" fill="#263238"/></marker>
  <linearGradient id="sky" x1="0" y1="0" x2="0" y2="1"><stop offset="0" stop-color="#d8ecff"/><stop offset="1" stop-color="#fffaf0"/></linearGradient>
  <style>
    .title{font:700 26px Helvetica,Arial,sans-serif;fill:#17212b}
    .label{font:15px Helvetica,Arial,sans-serif;fill:#17212b}
    .small{font:12px Helvetica,Arial,sans-serif;fill:#455a64}
    .axis{stroke:#263238;stroke-width:2;marker-end:url(#arrow)}
    .grid{stroke:#cfd8dc;stroke-width:1;opacity:.75}
    .ground{fill:#eef1ec;stroke:#9e9e9e;stroke-width:2;opacity:.85}
    .photo{fill:#1565c0;fill-opacity:.38;stroke:#0d47a1;stroke-width:2}
    .photoDark{fill:#10202e;opacity:.65}
    .photoLight{fill:#fff7d6;opacity:.75}
    .cyl{fill:#c98736;fill-opacity:.82;stroke:#7a4a18;stroke-width:2}
    .cylLine{stroke:#7a4a18;stroke-width:2}
    .camera{fill:#263238;stroke:#111;stroke-width:1}
    .look{fill:#e91e63}
    .ray{stroke:#263238;stroke-width:2.2;marker-end:url(#arrow)}
    .fov{stroke:#607d8b;stroke-width:1.8;stroke-dasharray:8 6;fill:none}
    .viewport{fill:#9c27b0;fill-opacity:.13;stroke:#7b1fa2;stroke-width:2.5}
  </style>
</defs>
<rect width="100%" height="100%" fill="url(#sky)"/>
<text class="title" x="38" y="46">3D Scene Layout</text>
<text class="small" x="38" y="70">Isometric visualization of current camera, viewport/focus plane, metal cylinder, photo plane, and ground.</text>

<polygon class="ground" points="442.3,554.0 875.5,471.9 581.0,310.4 147.8,392.5"/>
<line class="grid" x1="478.4" y1="547.0" x2="183.9" y2="385.5" style="" />
<line class="grid" x1="523.5" y1="538.4" x2="229.0" y2="376.9" style="" />
<line class="grid" x1="568.6" y1="529.9" x2="274.2" y2="368.4" style="" />
<line class="grid" x1="613.8" y1="521.3" x2="319.3" y2="359.8" style="" />
<line class="grid" x1="658.9" y1="512.8" x2="364.4" y2="351.3" style="" />
<line class="grid" x1="704.0" y1="504.2" x2="409.5" y2="342.7" style="" />
<line class="grid" x1="749.1" y1="495.7" x2="454.6" y2="334.2" style="" />
<line class="grid" x1="794.3" y1="487.1" x2="499.8" y2="325.6" style="" />
<line class="grid" x1="839.4" y1="478.6" x2="544.9" y2="317.1" style="" />
<line class="grid" x1="442.3" y1="553.8" x2="875.5" y2="471.7" style="" />
<line class="grid" x1="412.9" y1="537.7" x2="846.0" y2="455.6" style="" />
<line class="grid" x1="383.4" y1="521.5" x2="816.6" y2="439.4" style="" />
<line class="grid" x1="354.0" y1="505.4" x2="787.1" y2="423.3" style="" />
<line class="grid" x1="324.5" y1="489.2" x2="757.7" y2="407.1" style="" />
<line class="grid" x1="295.1" y1="473.1" x2="728.2" y2="391.0" style="" />
<line class="grid" x1="265.6" y1="456.9" x2="698.8" y2="374.8" style="" />
<line class="grid" x1="236.1" y1="440.8" x2="669.4" y2="358.7" style="" />
<line class="grid" x1="206.7" y1="424.6" x2="639.9" y2="342.5" style="" />
<line class="grid" x1="177.3" y1="408.5" x2="610.5" y2="326.4" style="" />
<line class="grid" x1="147.8" y1="392.3" x2="581.0" y2="310.2" style="" />
<polygon class="photo" points="402.6,476.6 691.4,421.9 561.8,350.8 273.0,405.5"/>
<polygon class="photoLight" points="402.6,476.6 438.7,469.7 417.1,457.9 381.0,464.7"/>
<polygon class="photoDark" points="381.0,464.7 417.1,457.9 395.5,446.1 359.4,452.9"/>
<polygon class="photoLight" points="359.4,452.9 395.5,446.1 373.9,434.2 337.8,441.1"/>
<polygon class="photoDark" points="337.8,441.1 373.9,434.2 352.3,422.4 316.2,429.2"/>
<polygon class="photoLight" points="316.2,429.2 352.3,422.4 330.7,410.5 294.6,417.4"/>
<polygon class="photoDark" points="294.6,417.4 330.7,410.5 309.1,398.7 273.0,405.5"/>
<polygon class="photoDark" points="438.7,469.7 474.8,462.9 453.2,451.1 417.1,457.9"/>
<polygon class="photoLight" points="417.1,457.9 453.2,451.1 431.6,439.2 395.5,446.1"/>
<polygon class="photoDark" points="395.5,446.1 431.6,439.2 410.0,427.4 373.9,434.2"/>
<polygon class="photoLight" points="373.9,434.2 410.0,427.4 388.4,415.5 352.3,422.4"/>
<polygon class="photoDark" points="352.3,422.4 388.4,415.5 366.8,403.7 330.7,410.5"/>
<polygon class="photoLight" points="330.7,410.5 366.8,403.7 345.2,391.8 309.1,398.7"/>
<polygon class="photoLight" points="474.8,462.9 510.9,456.1 489.3,444.2 453.2,451.1"/>
<polygon class="photoDark" points="453.2,451.1 489.3,444.2 467.7,432.4 431.6,439.2"/>
<polygon class="photoLight" points="431.6,439.2 467.7,432.4 446.1,420.5 410.0,427.4"/>
<polygon class="photoDark" points="410.0,427.4 446.1,420.5 424.5,408.7 388.4,415.5"/>
<polygon class="photoLight" points="388.4,415.5 424.5,408.7 402.9,396.9 366.8,403.7"/>
<polygon class="photoDark" points="366.8,403.7 402.9,396.9 381.3,385.0 345.2,391.8"/>
<polygon class="photoDark" points="510.9,456.1 547.0,449.2 525.4,437.4 489.3,444.2"/>
<polygon class="photoLight" points="489.3,444.2 525.4,437.4 503.8,425.5 467.7,432.4"/>
<polygon class="photoDark" points="467.7,432.4 503.8,425.5 482.2,413.7 446.1,420.5"/>
<polygon class="photoLight" points="446.1,420.5 482.2,413.7 460.6,401.9 424.5,408.7"/>
<polygon class="photoDark" points="424.5,408.7 460.6,401.9 439.0,390.0 402.9,396.9"/>
<polygon class="photoLight" points="402.9,396.9 439.0,390.0 417.4,378.2 381.3,385.0"/>
<polygon class="photoLight" points="547.0,449.2 583.1,442.4 561.5,430.5 525.4,437.4"/>
<polygon class="photoDark" points="525.4,437.4 561.5,430.5 539.9,418.7 503.8,425.5"/>
<polygon class="photoLight" points="503.8,425.5 539.9,418.7 518.3,406.9 482.2,413.7"/>
<polygon class="photoDark" points="482.2,413.7 518.3,406.9 496.7,395.0 460.6,401.9"/>
<polygon class="photoLight" points="460.6,401.9 496.7,395.0 475.1,383.2 439.0,390.0"/>
<polygon class="photoDark" points="439.0,390.0 475.1,383.2 453.5,371.3 417.4,378.2"/>
<polygon class="photoDark" points="583.1,442.4 619.2,435.5 597.6,423.7 561.5,430.5"/>
<polygon class="photoLight" points="561.5,430.5 597.6,423.7 576.0,411.9 539.9,418.7"/>
<polygon class="photoDark" points="539.9,418.7 576.0,411.9 554.4,400.0 518.3,406.9"/>
<polygon class="photoLight" points="518.3,406.9 554.4,400.0 532.8,388.2 496.7,395.0"/>
<polygon class="photoDark" points="496.7,395.0 532.8,388.2 511.2,376.3 475.1,383.2"/>
<polygon class="photoLight" points="475.1,383.2 511.2,376.3 489.6,364.5 453.5,371.3"/>
<polygon class="photoLight" points="619.2,435.5 655.3,428.7 633.7,416.9 597.6,423.7"/>
<polygon class="photoDark" points="597.6,423.7 633.7,416.9 612.1,405.0 576.0,411.9"/>
<polygon class="photoLight" points="576.0,411.9 612.1,405.0 590.5,393.2 554.4,400.0"/>
<polygon class="photoDark" points="554.4,400.0 590.5,393.2 568.9,381.3 532.8,388.2"/>
<polygon class="photoLight" points="532.8,388.2 568.9,381.3 547.3,369.5 511.2,376.3"/>
<polygon class="photoDark" points="511.2,376.3 547.3,369.5 525.7,357.6 489.6,364.5"/>
<polygon class="photoDark" points="655.3,428.7 691.4,421.9 669.8,410.0 633.7,416.9"/>
<polygon class="photoLight" points="633.7,416.9 669.8,410.0 648.2,398.2 612.1,405.0"/>
<polygon class="photoDark" points="612.1,405.0 648.2,398.2 626.6,386.3 590.5,393.2"/>
<polygon class="photoLight" points="590.5,393.2 626.6,386.3 605.0,374.5 568.9,381.3"/>
<polygon class="photoDark" points="568.9,381.3 605.0,374.5 583.4,362.7 547.3,369.5"/>
<polygon class="photoLight" points="547.3,369.5 583.4,362.7 561.8,350.8 525.7,357.6"/>
<text class="label" x="699.4" y="417.9">photo.ppm quad</text>
<polygon class="cyl" points="432.6,327.7 531.8,308.9 531.8,403.1 432.6,421.9"/>
<polyline class="cylLine" fill="none" points="531.8,308.9 534.8,310.7 537.2,312.5 539.1,314.4 540.5,316.4 541.2,318.4 541.5,320.3 541.1,322.3 540.2,324.2 538.7,326.0 536.7,327.8 534.2,329.5 531.1,331.1 527.6,332.5 523.7,333.9 519.3,335.0 514.6,336.0 509.6,336.9 504.3,337.5 498.8,338.0 493.1,338.3 487.4,338.4 481.6,338.3 475.8,338.0 470.0,337.5 464.4,336.8 458.9,336.0 453.7,334.9 448.7,333.8 444.1,332.4 439.8,331.0 436.0,329.4 432.6,327.7 429.6,325.9 427.2,324.0 425.3,322.1 423.9,320.2 423.2,318.2 422.9,316.2 423.3,314.3 424.2,312.4 425.7,310.5 427.7,308.7 430.2,307.0 433.3,305.5 436.8,304.0 440.7,302.7 445.1,301.5 449.8,300.5 454.8,299.7 460.1,299.0 465.6,298.5 471.3,298.3 477.0,298.2 482.8,298.3 488.6,298.6 494.4,299.1 500.0,299.7 505.5,300.6 510.7,301.6 515.7,302.8 520.3,304.1 524.6,305.6 528.4,307.2"/>
<polyline class="cylLine" fill="none" points="531.8,403.1 534.8,404.9 537.2,406.8 539.1,408.7 540.5,410.6 541.2,412.6 541.5,414.6 541.1,416.5 540.2,418.4 538.7,420.3 536.7,422.1 534.2,423.8 531.1,425.3 527.6,426.8 523.7,428.1 519.3,429.3 514.6,430.3 509.6,431.1 504.3,431.8 498.8,432.3 493.1,432.5 487.4,432.6 481.6,432.5 475.8,432.2 470.0,431.7 464.4,431.1 458.9,430.2 453.7,429.2 448.7,428.0 444.1,426.7 439.8,425.2 436.0,423.6 432.6,421.9 429.6,420.1 427.2,418.3 425.3,416.4 423.9,414.4 423.2,412.4 422.9,410.5 423.3,408.5 424.2,406.6 425.7,404.8 427.7,403.0 430.2,401.3 433.3,399.7 436.8,398.3 440.7,396.9 445.1,395.8 449.8,394.8 454.8,393.9 460.1,393.3 465.6,392.8 471.3,392.5 477.0,392.4 482.8,392.5 488.6,392.8 494.4,393.3 500.0,394.0 505.5,394.8 510.7,395.9 515.7,397.0 520.3,398.4 524.6,399.8 528.4,401.4"/>
<line class="cylLine" x1="432.6" y1="327.7" x2="432.6" y2="421.9" style="" />
<line class="cylLine" x1="531.8" y1="308.9" x2="531.8" y2="403.1" style="" />
<text class="label" x="550.9" y="321.9">metal cylinder</text>
<polygon class="viewport" points="161.3,322.4 748.1,211.2 798.6,448.3 211.8,559.5"/>
<text class="label" x="758.1" y="211.2">viewport / focus plane</text>
<line class="fov" x1="812.0" y1="487.4" x2="161.3" y2="322.4" style="" />
<line class="fov" x1="812.0" y1="487.4" x2="748.1" y2="211.2" style="" />
<line class="fov" x1="812.0" y1="487.4" x2="798.6" y2="448.3" style="" />
<line class="fov" x1="812.0" y1="487.4" x2="211.8" y2="559.5" style="" />
<line class="ray" x1="812.0" y1="487.4" x2="482.2" y2="386.0" style="" />
<circle class="camera" cx="812.0" cy="487.4" r="9" /><text class="small" x="822.0" y="477.4">camera lookfrom (0,1,3.6)</text>
<circle class="look" cx="482.2" cy="386.0" r="6" /><text class="small" x="492.2" y="376.0">lookat (0,-.35,-2)</text>
<line class="axis" x1="447.2" y1="538.9" x2="519.4" y2="525.2" style="" />
<line class="axis" x1="447.2" y1="538.9" x2="447.2" y2="491.7" style="" />
<line class="axis" x1="447.2" y1="538.9" x2="400.1" y2="513.0" style="" />
<text class="label" x="524.8" y="524.1">X</text>
<text class="label" x="447.2" y="488.2">Y</text>
<text class="label" x="396.5" y="511.1">-Z</text>
<rect x="38" y="742" width="1124" height="64" rx="12" fill="#ffffff" opacity=".86" stroke="#eceff1"/>
<text class="small" x="58" y="767">Current coordinates: camera (0,1,3.6), lookat (0,-0.35,-2), cylinder center (0,0,-2), photo quad y=-0.82, ground y≈-0.86.</text>
<text class="small" x="58" y="788">The purple rectangle is the viewport/focus plane computed from vfov=35, aspect=16:9, focus_dist=5.8.</text>

</svg>